<?xml version="1.0" encoding="UTF-8"?>
<svg id="Layer_1" data-name="Layer 1" xmlns="http://www.w3.org/2000/svg" version="1.1" xmlns:xlink="http://www.w3.org/1999/xlink" viewBox="0 0 1366 768">
  <defs>
    <style>
      .cls-1 {
        font-size: 123.4px;
      }

      .cls-1, .cls-2 {
        stroke: #000;
      }

      .cls-1, .cls-2, .cls-3 {
        stroke-miterlimit: 10;
      }

      .cls-1, .cls-2, .cls-4 {
        fill: #fff;
        font-family: Roboto-Bold, Roboto;
        font-weight: 700;
      }

      .cls-2 {
        font-size: 99.3px;
      }

      .cls-5, .cls-3 {
        fill: none;
      }

      .cls-5, .cls-6, .cls-7 {
        stroke-width: 0px;
      }

      .cls-3 {
        stroke: #fff;
      }

      .cls-4 {
        font-size: 22.2px;
      }

      .cls-6 {
        fill: url(#New_Pattern);
        opacity: .1;
      }

      .cls-7 {
        fill: #0a1144;
      }
    </style>
    <pattern id="New_Pattern" data-name="New Pattern" x="0" y="0" width="64.3" height="64.7" patternTransform="translate(0 768)" patternUnits="userSpaceOnUse" viewBox="0 0 64.3 64.7">
      <g>
        <rect class="cls-5" width="64.3" height="64.7"/>
        <g>
          <text class="cls-4" transform="translate(45.6 76.6) rotate(-45)"><tspan x="0" y="0">fb</tspan></text>
          <circle class="cls-3" cx="47.2" cy="51" r="2"/>
        </g>
        <g>
          <text class="cls-4" transform="translate(13.4 76.6) rotate(-45)"><tspan x="0" y="0">fb</tspan></text>
          <circle class="cls-3" cx="15" cy="51" r="2"/>
        </g>
        <g>
          <text class="cls-4" transform="translate(61.7 44.2) rotate(-45)"><tspan x="0" y="0">fb</tspan></text>
          <circle class="cls-3" cx="63.3" cy="18.7" r="2"/>
        </g>
        <g>
          <text class="cls-4" transform="translate(29.5 44.2) rotate(-45)"><tspan x="0" y="0">fb</tspan></text>
          <circle class="cls-3" cx="31.1" cy="18.7" r="2"/>
        </g>
        <g>
          <text class="cls-4" transform="translate(-2.6 44.2) rotate(-45)"><tspan x="0" y="0">fb</tspan></text>
          <circle class="cls-3" cx="-1" cy="18.7" r="2"/>
        </g>
        <text class="cls-4" transform="translate(45.6 11.9) rotate(-45)"><tspan x="0" y="0">fb</tspan></text>
        <text class="cls-4" transform="translate(13.4 11.9) rotate(-45)"><tspan x="0" y="0">fb</tspan></text>
      </g>
    </pattern>
  </defs>
  <path class="cls-7" d="M1366,627.6c-162.1,30.4-292.9,35.1-378,34.4-264.3-2-381.4-57.9-637-55.2-154.2,1.6-277.9,23.6-352,39.8C-.7,431.1-.3,215.5,0,0h1366v627.6Z"/>
  <path class="cls-6" d="M1366,627.6c-162.1,30.4-292.9,35.1-378,34.4-264.3-2-381.4-57.9-637-55.2-154.2,1.6-277.9,23.6-352,39.8C-.7,431.1-.3,215.5,0,0h1366v627.6Z"/>
  <g>
    <text class="cls-2" transform="translate(480.8 279.4)"><tspan x="0" y="0">fort</tspan></text>
    <text class="cls-1" transform="translate(480.8 382.7)"><tspan x="0" y="0">bubble</tspan></text>
  </g>
</svg>